<!-- Created with Inkscape (http://www.inkscape.org/) -->
<svg xmlns:rdf="http://www.w3.org/1999/02/22-rdf-syntax-ns#" xmlns="http://www.w3.org/2000/svg" height="667.78" width="667.78" version="1.1" xmlns:cc="http://creativecommons.org/ns#" xmlns:dc="http://purl.org/dc/elements/1.1/">
<defs></defs>
<metadata>
<rdf:RDF>
<cc:Work rdf:about="">
<dc:format>image/svg+xml</dc:format>
<dc:type rdf:resource="http://purl.org/dc/dcmitype/StillImage"/>
<dc:title/>
</cc:Work>
</rdf:RDF>
</metadata>
<path style="text-align:center;" fill="#000" d="m118.59,523.48,0.72975,0.82126,11.571-10.281c1.4844-1.3189,2.3307-2.4738,2.539-3.4645,0.22457-1.0705-0.0199-2.0072-0.73346-2.8102l-1.0703-1.2045,1.7885-1.5892,13.022,14.655-1.7885,1.5892-1.0703-1.2045c-0.75677-0.85167-1.6799-1.229-2.7693-1.1318-1.0746,0.23635-2.2993,0.96535-3.6742,2.187l-14.637,13.006-9.5813,8.5137c-1.387,1.2324-2.2306,2.3413-2.5309,3.3266-0.19613,0.97989,0.1004,1.9139,0.88957,2.8021l1.0703,1.2045-1.9345,1.719-13.217-14.874c-2.8-3.1512-4.6336-6.3174-5.5009-9.4987-0.86714-3.1813,0.64324-6.5537,4.5312-10.117,2.6159-2.3244,5.0572-3.5465,7.3239-3.6664,2.2668-0.11989,4.0712,0.22003,5.4132,1.0198,1.3421,0.79974,2.2996,1.522,2.8726,2.1669l6.6267-16.47c0.0135-0.0338,0.13424-0.36963,0.36208-1.0076,0.22789-0.63792,0.41452-1.212,0.55989-1.7222,0.14542-0.5102,0.23574-1.064,0.27096-1.6615,0.10156-0.93935-0.0355-1.8409-0.41111-2.7047l2.0258-1.8,7.3623,8.2856zm-4.0714,1.5929c-3.7622-4.234-7.6874-4.5348-11.775-0.90227-2.2941,2.1474-3.345,4.1807-3.1528,6.1001,0.19232,1.9194,1.1317,3.8281,2.8182,5.7261l1.6541,1.8615,12.191-10.833z"/>
<path style="text-align:center;" fill="#000" d="m109.23,473.65-2.0891,1.1662-0.78544-1.4069c-0.56329-1.009-1.3834-1.5764-2.4602-1.7023-1.1003-0.00089-2.4534,0.44692-4.0593,1.3434l-17.096,9.5442-11.192,6.2478c-1.6201,0.90442-2.6829,1.8053-3.1886,2.7028-0.41071,0.90034-0.32254,1.8764,0.26452,2.928l0.78544,1.4069-2.2596,1.2615-15.114-27.073,9.2952-5.8882,0.64263,1.1511-1.461,1.0393c-1.356,0.94343-2.2066,2.0241-2.5519,3.2421-0.30756,1.0851,0.01069,2.4732,0.95475,4.1644l4.8316,8.6548,14.41-8.0448-3.225-5.777c-0.44425-0.79584-1.1243-1.3296-2.0403-1.6012-1.3125-0.18066-2.2956-0.0885-2.9493,0.27642l-2.2596,1.2615-0.83304-1.4922,14.922-8.3304,0.83304,1.4922-1.9185,1.071c-0.81002,0.45223-1.5974,1.1621-2.3622,2.1296-0.48474,1.0349-0.42168,2.0995,0.18918,3.1938l3.225,5.777,16.755-9.3538-4.1414-7.4184c-0.78542-1.4069-1.5151-2.4302-2.1891-3.0699-0.67396-0.63963-1.5914-1.0642-2.7522-1.2736-1.05-0.17803-2.1918-0.16974-3.4253,0.0248-1.2334,0.19465-1.9695,0.31197-2.2081,0.35196l-0.2406-1.6831,10.721-3.1333z"/>
<path style="text-align:center;" fill="#000" d="m56.416,412.88,1.1595,3.8323,14.815-4.4826c1.9006-0.57505,3.1531-1.2686,3.7577-2.0807,0.67627-0.79977,0.84707-1.7527,0.5124-2.8588l-0.46665-1.5423,2.29-0.6929,5.6775,18.764-2.29,0.6929-0.45958-1.5189c-0.33466-1.1061-1.0075-1.8122-2.0184-2.1186-1.0624-0.30773-2.4893-0.19056-4.2809,0.3515l-18.741,5.6705-12.268,3.712c-1.8071,0.54677-3.0285,1.2309-3.6642,2.0524-0.60776,0.74506-0.73725,1.694-0.38849,2.8468l0.45958,1.5189-2.477,0.74947-5.7624-19.045c-1.2396-4.0972-1.5971-7.7513-1.0723-10.962,0.52488-3.2111,3.3304-5.6287,8.4165-7.2526,3.4429-1.0417,6.2555-1.1317,8.4377-0.27009,2.1823,0.86167,3.8212,2.1896,4.9166,3.9837,1.0955,1.7941,1.9944,3.8518,2.6967,6.173zm-3.5157,2.5432c-1.6214-5.359-5.0494-7.2466-10.284-5.6629-5.1296,1.7051-6.8955,5.1983-5.2976,10.479l0.72118,2.3835,15.61-4.723z"/>
<path style="text-align:center;" fill="#000" d="m54.888,353.52c4.0124-0.25027,6.8281-1.1883,8.4472-2.8141,1.6191-1.6257,2.377-3.9194,2.2738-6.881-0.37288-5.9779-4.3199-8.7323-11.841-8.2632l-26.852,1.675c-1.202,0.075-2.1889,0.33226-2.9606,0.77175-1.1747,0.51361-1.7261,1.3471-1.6542,2.5004l0.08208,1.3158-2.5829,0.16111-0.78428-12.573,2.5829-0.16111,0.08664,1.3889c0.09023,1.4458,0.68456,2.3464,1.783,2.7019,0.75131,0.27933,1.8255,0.3754,3.2224,0.28822l25.439-1.5868c11.046-0.68899,16.852,3.4906,17.416,12.539,0.33742,5.4094-0.64538,9.7189-2.9484,12.928-2.303,3.2095-6.3785,4.9966-12.227,5.3614l-25.268,1.5762c-1.9818,0.12363-3.3276,0.50927-4.0374,1.1569-0.75844,0.6507-1.1007,1.569-1.0268,2.7548l0.09424,1.5107-2.5829,0.16111-1.2144-19.469,2.5829-0.16111,0.09271,1.4864c0.07503,1.2021,0.52926,2.0788,1.3627,2.6302,1.0284,0.53925,2.4117,0.75465,4.1498,0.64622z"/>
<path style="text-align:center;" fill="#000" d="m68.679,303.39-2.3578-0.40632,0.2695-1.5639c0.19625-1.1388-0.08894-2.0716-0.85557-2.7982-0.81198-0.75102-2.1403-1.2855-3.9848-1.6033l-19.294-3.33-12.631-2.18c-1.8606-0.32062-3.259-0.25607-4.1954,0.19365-0.87711,0.39388-1.418,1.1843-1.6226,2.3712l-0.2695,1.5639-2.5503-0.43949,3.3294-19.32c1.7083-9.9124,6.5322-14.185,14.472-12.816,4.026,0.69383,6.507,2.422,7.443,5.1845,0.93606,2.7626,1.1774,5.4591,0.72409,8.0896,0.42569-2.4701,1.6177-5.0022,3.5759-7.5963,1.9583-2.5941,5.2999-3.6079,10.025-3.0414,3.8335,0.66066,6.6658,1.8837,8.4969,3.6691,1.8311,1.7855,2.8962,3.823,3.1954,6.1124,0.29912,2.2895,0.20406,4.8537-0.28518,7.6927zm-22.149-19.25c0.42846-2.4861,0.20263-4.6019-0.67749-6.3474-0.88007-1.7454-2.9-2.8904-6.0599-3.435-5.4031-0.84851-8.5732,1.4459-9.5102,6.8833l-0.40632,2.3578,16.264,2.8028zm3.6522,2.9581,18.911,3.2589,0.60948-3.5367c0.91768-5.3251-1.8394-8.5419-8.2713-9.6503-6.1752-1.0641-9.7949,1.4914-10.859,7.6666z"/>
<path style="text-align:center;" fill="#000" d="m81.621,244.97-2.213-0.90946,0.60321-1.4678c0.43926-1.0688,0.36378-2.0413-0.22643-2.9174-0.6593-0.92202-1.8395-1.7326-3.5407-2.4317l-18.11-7.4427-11.855-4.8721c-1.7162-0.70527-3.0952-0.94645-4.1371-0.72355-0.94179,0.19367-1.6416,0.8475-2.0995,1.9615l-0.60321,1.4678-2.3936-0.9837,7.4055-18.02,2.3936,0.9837-0.56609,1.3775c-0.45778,1.1141-0.43232,2.1012,0.0764,2.9613,0.58406,0.89112,1.7342,1.6893,3.4503,2.3946l33.398,13.725,2.8954-7.0454c0.90326-2.1979,0.50463-4.4822-1.1959-6.8527-1.7218-2.3616-3.6521-4.2372-5.7911-5.6265l1.6336-1.5986,12.615,7.4544z"/>
<path style="text-align:center;" fill="#000" d="m106.67,178.15c1.6651,1.0818,3.0029,1.592,4.0134,1.5303,1.0562-0.0125,1.8947-0.49643,2.5154-1.4518l0.87788-1.3512,2.0063,1.3035-10.681,16.439-2.0063-1.3035,0.87788-1.3512c0.62072-0.95538,0.72219-1.9182,0.30441-2.8884-0.44986-1.0104-1.4596-2.0255-3.0291-3.0453l-16.417-10.67-10.748-6.98c-1.5832-1.0286-2.8937-1.521-3.9315-1.4771-0.96136,0.0159-1.7657,0.52203-2.4131,1.5183l-0.87788,1.3512-2.1701-1.4099,10.681-16.439,2.1701,1.4099-0.87788,1.3512c-0.6473,0.99637-0.78289,1.937-0.40677,2.8218,0.29976,0.91293,1.2822,1.9103,2.9472,2.9921l10.748,6.9831z"/>
<path style="text-align:center;" fill="#000" d="m126.1,116.31c-0.75035-0.5335-2.0643-1.1592-3.9418-1.8772-1.8775-0.71786-3.8871-1.0841-6.0289-1.0989-2.1417-0.0146-3.8966,0.69767-5.2646,2.1369-1.951,2.0528-2.1725,4.8905-0.66447,8.5132,1.5081,3.6227,4.1556,7.2338,7.9426,10.833,3.2089,3.05,6.0194,5.4854,8.4315,7.3064,2.4121,1.8211,4.7574,3.0509,7.0358,3.6895,2.2784,0.63865,4.3813,0.36938,6.3085-0.80783,0.63259-0.47655,1.0666-0.83871,1.3021-1.0865,1.7156-1.805,2.2414-4.1065,1.5774-6.9045-0.66398-2.7979-1.6574-5.0839-2.9804-6.8578l3.5136-0.36555c0.0961,0.15876,0.4883,0.86834,1.1766,2.1287,0.68822,1.2604,1.2302,2.7692,1.626,4.5263,0.39575,1.7572,0.36697,3.6834-0.0863,5.7786-0.45335,2.0953-1.6219,4.134-3.5057,6.1159-3.6831,3.6625-8.1936,5.006-13.531,4.0306-5.3378-0.97537-11.109-4.4121-17.315-10.31-5.3689-5.5969-8.4227-10.812-9.1614-15.646-0.73868-4.8338,0.58512-9.0321,3.9714-12.595,2.0992-2.114,4.4324-3.3994,6.9996-3.8561,0.60599-0.16501,1.0211-0.36551,1.2454-0.60151,0.29155-0.30668,0.38102-0.63706,0.2684-0.99115-0.14379-0.67553-0.46933-1.2544-0.97663-1.7366l1.3792-1.4511,11.856,9.8875z"/>
<path style="text-align:center;" fill="#000" d="m311.67,41.61c0.64596,5.3977,0.55558,10.121-0.27112,14.171-0.82678,4.0495-2.4147,7.2516-4.7638,9.6063-2.3492,2.3548-5.3903,3.7555-9.1234,4.2023-3.5573,0.40934-6.7648-0.33374-9.6226-2.2293-2.8578-1.8955-5.199-4.7134-7.0236-8.4538-1.8246-3.7403-3.0386-8.1316-3.642-13.174-0.44458-4.5366-0.26307-8.7383,0.54455-12.605,0.80761-3.8668,2.3571-7.0479,4.6484-9.5433,2.2913-2.4953,5.3116-3.9674,9.0609-4.4161,5.8825-0.70396,10.471,1.0336,13.766,5.2126,3.295,4.1791,5.4371,9.9223,6.4264,17.23zm-19.7-18.369c-2.6607,0.36766-4.3654,2.7313-5.114,7.0911-0.74863,4.3598-0.83034,9.2585-0.24511,14.696,0.64017,5.3492,1.8718,10.128,3.695,14.335,1.8231,4.2077,4.0566,6.1943,6.7005,5.9599,2.7311-0.32686,4.4578-2.7464,5.18-7.2588,0.72215-4.5123,0.74186-9.6208,0.0591-15.326-0.72032-5.4707-1.9342-10.169-3.6417-14.096-1.7076-3.9264-3.9188-5.7272-6.6338-5.4023z"/>
<path style="text-align:center;" fill="#000" d="m363.13,39.113,1.1551-12.765c0.16721-1.8479,0.023-3.2337-0.43275-4.1575-0.51169-0.84704-1.3673-1.3249-2.5668-1.4334l-1.6048-0.14521,0.23322-2.5774,30.88,2.7942-0.38221,10.997-1.313-0.11881-0.0339-1.7926c-0.014-1.6518-0.4264-2.9639-1.2372-3.9361-0.72244-0.86611-2.0481-1.3865-3.9771-1.5611l-9.8718-0.89327-1.4873,16.437,6.5893,0.59625c0.90772,0.08217,1.7321-0.17826,2.473-0.78129,0.88959-0.98174,1.3681-1.8454,1.4356-2.5911l0.23322-2.5774,1.702,0.15401-1.5401,17.02-1.702-0.15401,0.19802-2.1883c0.0836-0.92394-0.0583-1.9745-0.42571-3.1518-0.58102-0.98408-1.4956-1.5326-2.7437-1.6456l-6.5893-0.59625-1.3949,15.416c-0.17897,1.9776-0.005,3.3988,0.52121,4.2635,0.56917,0.934,1.3968,1.4501,2.4829,1.5484l1.5805,0.14301-0.21562,2.3828-19.525-1.7667,0.21562-2.3828,1.6048,0.14521c1.1509,0.10414,2.082-0.25285,2.7934-1.071,0.62146-0.90797,1.0151-2.2778,1.1808-4.1095z"/>
<path style="text-align:start;" fill="#000" d="m554.52,126.18-1.206-1.1761c0.80365-1.9898,1.2251-3.7158,1.2643-5.178-0.0261-2.0714-0.80234-3.8514-2.3288-5.3401l-1.2235-1.1932-25.193,25.834c-1.3182,1.3517-2.0565,2.5868-2.2151,3.7052-0.25241,0.98149,0.0351,1.8756,0.86242,2.6825l1.1536,1.125-1.6704,1.7129-13.896-13.551,1.6704-1.7129,1.0837,1.0568c0.83898,0.81816,1.7401,1.0831,2.7033,0.79473,1.1141-0.18665,2.3302-0.95583,3.6484-2.3075l25.193-25.834-1.206-1.1761c-1.5382-1.4999-3.343-2.2369-5.4144-2.2109-1.45,0.0182-3.1591,0.48861-5.1272,1.4111l-1.2235-1.1932,8.5267-7.0303,21.621,21.085z"/>
<path style="text-align:start;" fill="#000" d="m559.67,194.76,2.1241-1.1011,0.74157,1.4305c0.53184,1.0259,1.334,1.6184,2.4064,1.7775,1.0997,0.0349,2.466-0.37089,4.0989-1.2173l17.383-9.0113,11.379-5.8989c1.6472-0.85392,2.7374-1.7216,3.2706-2.6029,0.43834-0.88722,0.38037-1.8655-0.1739-2.9348l-0.74158-1.4305,2.2975-1.191,14.27,27.527-9.4728,5.5981-0.60675-1.1704,1.4924-0.99363c1.3845-0.90107,2.2681-1.955,2.6509-3.1617,0.34095-1.0751,0.0658-2.4724-0.82559-4.1919l-4.5618-8.8-14.652,7.5956,3.045,5.8739c0.41944,0.80918,1.0827,1.3637,1.9898,1.6634,1.3062,0.22114,2.2917,0.15943,2.9565-0.18513l2.2975-1.191,0.78652,1.5172-15.172,7.8652-0.78652-1.5172,1.9507-1.0112c0.82361-0.42698,1.6326-1.1122,2.4269-2.0555,0.51649-1.0194,0.48636-2.0855-0.0904-3.1981l-3.045-5.8739-17.036,8.8315,3.9102,7.5428c0.74156,1.4305,1.4393,2.4759,2.0932,3.1361,0.65388,0.66015,1.5577,1.1128,2.7115,1.3581,1.044,0.21039,2.1855,0.2374,3.4244,0.081,1.2389-0.15643,1.9782-0.25094,2.218-0.28354l0.18847,1.6898-10.813,2.8004z"/>
<path style="text-align:start;" fill="#000" d="m594.12,293.78,2.3681-0.34147,0.18468,1.2807c0.18118,1.2565,0.58373,1.9385,1.2077,2.0458,0.27633,0.0917,0.51921,0.12244,0.72864,0.0923,0.45105-0.0651,0.99103-0.34026,1.6199-0.82559,0.62889-0.48537,0.95829-0.73842,0.9882-0.75915l10.666-7.2853-11.948-4.3451c-0.99243-0.26802-2.2136-0.29749-3.6634-0.0884-0.76614,0.27491-1.0273,1.2581-0.78335,2.9496l0.18467,1.2807-2.3681,0.34147-1.9826-13.749,2.3681-0.34146c0.14169,0.98267,0.64701,1.9211,1.516,2.8154,0.97953,0.97697,2.3362,1.7187,4.0702,2.2251l16.671,6.3034,18.666-12.706c0.86229-0.63412,1.4966-1.3669,1.903-2.1984,0.12576-0.61013,0.10735-1.479-0.0552-2.6067l2.5614-0.36934,2.683,18.606-2.5614,0.36935-0.19861-1.3774c-0.18123-1.2566-0.51935-1.9478-1.0144-2.0737-0.49944,0.072-0.98954,0.20845-1.4703,0.40935-0.48086,0.20087-0.86385,0.39587-1.149,0.585-0.28521,0.18911-0.51749,0.34594-0.69682,0.47048l-10.663,7.3095,11.924,4.3485c1.0248,0.37843,2.1896,0.47358,3.4945,0.28545,0.75215-0.3716,1.0098-1.379,0.77289-3.0221l-0.20209-1.4015,2.5614-0.36934,1.9861,13.774-2.5614,0.36934c-0.14407-0.99881-0.61253-1.9097-1.4054-2.7327-0.89904-0.98862-2.2294-1.7752-3.9909-2.3598l-16.653-6.1826-18.766,12.696c-0.8577,0.6663-1.4645,1.3622-1.8203,2.0878-0.28952,0.38704-0.3344,1.2733-0.13462,2.6587l-2.3681,0.34147z"/>
<path style="text-align:start;" fill="#000" d="m595.43,364.13,2.3429,0.48487-0.28201,1.3627c-0.22429,1.0838,0.20764,2.1289,1.2958,3.1353,0.61771,0.70956,1.383,1.3084,2.2959,1.7965l37.83,20.918-1.1132,5.3792-43.06,4.3524c-1.3256,0.14114-2.2674,0.39501-2.8253,0.76161-1.3949,0.47585-2.1913,1.1919-2.3892,2.1483l-0.30181,1.4584-2.3429-0.48486,3.9284-18.983,2.3429,0.48487-0.20285,0.9802c-0.1979,0.95628-0.0965,1.7917,0.30408,2.5062,0.25499,0.53474,0.70125,0.8681,1.3388,1.0001,0.23908,0.0494,0.64276,0.0665,1.211,0.0512l9.0405-0.79675,2.4738-11.954-7.102-4.1125c-1.3174-0.62168-2.0398-0.94571-2.1673-0.97208-0.0797-0.0165-0.34955,0.002-0.80957,0.0568-0.31273-0.0149-0.6506,0.15206-1.0136,0.50078-0.36303,0.34869-0.57588,0.67446-0.63855,0.9773l-0.26717,1.291-2.3429-0.48487zm15.318,16.334-2.0483,9.8977,16.482-1.6999zm-9.6657-9.5545,37.83,20.918z"/>
<path style="text-align:start;" fill="#000" d="m580.66,496.28c0.44518,0.27027,1.6894,0.54968,3.7325,0.83823,2.0431,0.28846,3.9176,0.14133,5.6234-0.44141,2.3537-0.6464,4.1768-2.0339,5.4693-4.1624,0.2027-0.33393,0.45961-0.88248,0.77071-1.6456,0.59925-1.426,0.64079-2.8194,0.12461-4.1801-0.51624-1.3608-1.3795-2.4086-2.5899-3.1434-2.1425-1.3009-4.3285-1.2287-6.558,0.21666-0.73939,0.46502-2.2002,1.4441-4.3826,2.9371s-3.9899,2.5805-5.4227,3.2624c-1.4328,0.68187-3.0334,1.1619-4.8017,1.4402-3.2491,0.52157-6.6196-0.27777-10.112-2.398-1.9199-1.1658-3.5739-2.589-4.9622-4.2697-1.3882-1.6808-2.3639-3.5156-2.927-5.5046-0.56313-1.989-0.56741-3.9577-0.0128-5.9059,0.39558-1.4355,1.1551-3.0784,2.2786-4.9287,2.6316-4.1146,5.4318-6.8605,8.4007-8.2377,0.50981-0.33787,0.84918-0.64592,1.0181-0.92416,0.1774-0.29216,0.26709-0.62805,0.26909-1.0077-0.0993-0.74582-0.5177-1.3426-1.255-1.7903l0.78561-1.2938,12.851,8.5172-0.62089,1.0226c-0.69562-0.42238-2.1763-0.8454-4.442-1.269-2.2658-0.42368-4.5367-0.25072-6.813,0.51888-1.9349,0.61506-3.4894,1.8895-4.6636,3.8233-1.0137,1.6695-1.4374,3.4258-1.2713,5.269,0.16615,1.8432,1.0608,3.4194,2.6841,4.7287,2.8798,1.7486,5.4022,2.4709,7.5671,2.1669,2.1649-0.30404,4.4513-1.4197,6.8592-3.347,3.1672-2.4565,6.2064-4.0671,9.1176-4.832,2.9112-0.76486,6.1267-0.0787,9.6466,2.0585,3.4119,2.4716,5.3734,5.2858,5.8844,8.4428,0.5109,3.1569-0.12931,6.2575-1.9206,9.3018-1.3263,2.1842-2.5086,3.8179-3.5471,4.9011-1.0385,1.0831-2.5518,2.2112-4.5398,3.3843-0.45915,0.25434-0.78163,0.53457-0.96745,0.84069-0.21965,0.36167-0.22489,0.82501-0.0157,1.39,0.24045,0.45063,0.68067,0.87025,1.3207,1.2589l-0.67157,1.106-12.68-6.8708z"/>
<path stroke-linejoin="miter" d="m-175.36,214.81a328.1,328.1,0,1,1,-656.2,0,328.1,328.1,0,1,1,656.2,0z" transform="matrix(1.0085169,0,0,1.0085169,841.63985,117.25061)" stroke="#000" stroke-linecap="round" stroke-miterlimit="4" stroke-dasharray="none" stroke-width="5.94933033" fill="none"/>
<path d="m333.74,212.21-26.969,83.125-0.0625,0-87.125,0-0.78125,0,70.969,51.875-0.34375,1.0312-27.125,82.781-0.34375,1,71.781-52.469,0.15625-0.125,71.938,52.594-27.688-84.406-0.125-0.40625,70.562-51.562,0.40625-0.3125-87.969,0-0.0625-0.25-27.219-82.875z" fill-opacity="0.58823529" stroke="#000" stroke-width="6" fill="#c8c8c8"/>
<path stroke-linejoin="miter" d="m-175.36,214.81a328.1,328.1,0,1,1,-656.2,0,328.1,328.1,0,1,1,656.2,0z" transform="matrix(0.76327088,0,0,0.76327088,718.16828,169.93234)" stroke="#000" stroke-linecap="round" stroke-miterlimit="4" stroke-dasharray="none" stroke-width="7.86090517" fill="none"/>
<path stroke-linejoin="miter" d="m397.39,512.22c-9.2069-6.7917-20.046-8.6875-31.113-9.8995" stroke="#000" stroke-linecap="butt" stroke-miterlimit="4" stroke-dasharray="none" stroke-width="2.29999995" fill="none"/>
<path stroke-linejoin="miter" d="m405.17,474.04c-4.4783,8.1164-8.9567,11.712-13.435,16.263" stroke="#000" stroke-linecap="butt" stroke-miterlimit="4" stroke-dasharray="none" stroke-width="2.29999995" fill="none"/>
<path stroke-linejoin="miter" d="m439.82,441.51c3.4341,9.0238-4.422,19.474-8.4853,24.749" stroke="#000" stroke-linecap="butt" stroke-miterlimit="4" stroke-dasharray="none" stroke-width="2.29999995" fill="none"/>
<path stroke-linejoin="miter" d="m479.42,445.05c-4.8224-2.5737-28.813,8.1355-28.284,9.1924" stroke="#000" stroke-linecap="butt" stroke-miterlimit="4" stroke-dasharray="none" stroke-width="2.29999995" fill="none"/>
<path stroke-linejoin="miter" d="m468.1,406.15c8.3002,7.0711,4.1868,20.506-0.70711,27.577" stroke="#000" stroke-linecap="butt" stroke-miterlimit="4" stroke-dasharray="none" stroke-width="2.29999995" fill="none"/>
<path stroke-linejoin="miter" d="m504.87,396.96c-7.4052,2.8673-12.8,9.7563-18.385,16.263" stroke="#000" stroke-linecap="butt" stroke-miterlimit="4" stroke-dasharray="none" stroke-width="2.29999995" fill="none"/>
<path stroke-linejoin="miter" d="m477.3,344.64c10.128-2.5298,20.184,41.058,16.263,50.205" stroke="#000" stroke-linecap="butt" stroke-miterlimit="4" stroke-dasharray="none" stroke-width="2.29999995" fill="none"/>
<path stroke-linejoin="miter" d="m516.9,309.28c-5.8035,6.2173-8.1123,25.629-10.15,35.613" stroke="#000" stroke-linecap="butt" stroke-miterlimit="4" stroke-dasharray="none" stroke-width="2.29999995" fill="none"/>
<path stroke-linejoin="miter" d="m480.83,295.14c12.896,8.9147,18.517,19.648,24.042,30.406" stroke="#000" stroke-linecap="butt" stroke-miterlimit="4" stroke-dasharray="none" stroke-width="2.29999995" fill="none"/>
<path stroke-linejoin="miter" d="m507.7,254.83c-8.0351,12.605-6.2677,32.963-7.0711,47.376" stroke="#000" stroke-linecap="butt" stroke-miterlimit="4" stroke-dasharray="none" stroke-width="2.29999995" fill="none"/>
<path stroke-linejoin="miter" d="m458.91,248.47c18.266,4.0546,24.451,12.941,33.941,20.506" stroke="#000" stroke-linecap="butt" stroke-miterlimit="4" stroke-dasharray="none" stroke-width="2.29999995" fill="none"/>
<path stroke-linejoin="miter" d="m482.25,221.6c-3.694,11.969-0.86787,21.242,0.7071,29.698" stroke="#000" stroke-linecap="butt" stroke-miterlimit="4" stroke-dasharray="none" stroke-width="2.29999995" fill="none"/>
<path stroke-linejoin="miter" d="m429.92,206.75c9.781,6.6763,18.746-1.757,32.527,9.8995" stroke="#000" stroke-linecap="butt" stroke-miterlimit="4" stroke-dasharray="none" stroke-width="2.29999995" fill="none"/>
<path stroke-linejoin="miter" d="m452.55,185.54c-2.2074,12.506,2.813,19.486,4.2426,24.042" stroke="#000" stroke-linecap="butt" stroke-miterlimit="4" stroke-dasharray="none" stroke-width="2.29999995" fill="none"/>
<path stroke-linejoin="miter" d="m413.66,165.03c1.6221,4.6862,3.5817,9.7099,7.0711,16.263" stroke="#000" stroke-linecap="butt" stroke-miterlimit="4" stroke-dasharray="none" stroke-width="2.29999995" fill="none"/>
<path stroke-linejoin="miter" d="m399.52,189.78c8.2158-5.0841,15.59-7.6424,21.92-7.0711" stroke="#000" stroke-linecap="butt" stroke-miterlimit="4" stroke-dasharray="none" stroke-width="2.29999995" fill="none"/>
<path stroke-linejoin="miter" d="m370.52,140.99c7.7325,11.177,6.8478,17.715,18.385,25.456" stroke="#000" stroke-linecap="butt" stroke-miterlimit="4" stroke-dasharray="none" stroke-width="2.29999995" fill="none"/>
<path stroke-linejoin="miter" d="m340.83,169.98c4.3102-4.8483,3.3813-9.3279,20.506-12.021" stroke="#000" stroke-linecap="butt" stroke-miterlimit="4" stroke-dasharray="none" stroke-width="2.29999995" fill="none"/>
<path stroke-linejoin="miter" d="m507.56,347.32c8.8806-2.195,17.017-6.4008,26.623-21.604,9.6059-15.203,11.944-32.978,7.9602-36.901-3.9837-3.9233-11.64,0.71662-15.446,14.042-5.5709,19.507-10.025,26.912-19.137,44.463z" stroke="#000" stroke-linecap="butt" stroke-width="2" fill="#999"/>
<path stroke-linejoin="miter" d="m501.4,382.12c11.903,1.7653,15.757,4.6988,30.888-5.0204s24.762-24.84,22.809-30.079c-1.9524-5.2392-10.853-4.2699-19.933,6.1983-13.293,15.325-18.089,16.846-33.765,28.901z" stroke="#000" stroke-linecap="butt" stroke-width="2" fill="#999"/>
<path stroke-linejoin="miter" d="m483.32,420.78c8.9871,5.1374,14.004,8.617,31.135,3.1452s30.347-17.585,29.817-23.151c-0.52983-5.566-9.3776-6.9333-20.858,0.82818-16.807,11.363-21.833,11.59-40.095,19.178z" stroke="#000" stroke-linecap="butt" stroke-width="2" fill="#999"/>
<path stroke-linejoin="miter" d="m434.85,467.37c10.534,10.318,15.724,9.7409,36.621,5.8088s37.838-14.776,37.787-20.331c-0.0509-5.5546-10.408-7.6738-24.838-0.98638-21.124,9.7903-27.112,9.58-49.571,15.508z" stroke="#000" stroke-linecap="butt" stroke-width="2" fill="#999"/>
<path stroke-linejoin="miter" d="m396.05,490.93c8.0904,10.958,22.57,13.228,33.417,14.509,19.848,2.2808,38.87-3.1121,40.953-8.3806s-6.196-10.247-21.422-8.0643c-22.29,3.1952-30.965,2.777-52.949,1.936z" stroke="#000" stroke-linecap="butt" stroke-width="2" fill="#999"/>
<path stroke-linejoin="miter" d="m502.49,302.98c10.73-2.9033,17.369-6.9988,26.166-22.684,8.7971-15.685,10.202-33.558,6.0181-37.267-4.1835-3.7094-11.587,1.3248-14.69,14.831-4.5423,19.772-9.3132,27.116-17.495,45.12z" stroke="#000" stroke-linecap="butt" stroke-width="2" fill="#999"/>
<path stroke-linejoin="miter" d="m489.15,254.97c9.7082-10.524,13.728-9.0505,16.009-26.889,2.2807-17.838-3.1121-34.936-8.3806-36.808-5.2685-1.8721-10.247,5.5689-8.0643,19.254,3.1952,20.034,1.277,24.685,0.4359,44.443z" stroke="#000" stroke-linecap="butt" stroke-width="2" fill="#999"/>
<path stroke-linejoin="miter" d="m464.03,218.07c7.6178-3.7719,11.168-13.594,10.965-29.875-0.2029-16.281-7.1921-30.93-12.152-31.944-4.9594-1.0146-8.4851,6.2839-4.8041,18.278,5.389,17.559,4.2553,25.721,5.9908,43.541z" stroke="#000" stroke-linecap="butt" stroke-width="2" fill="#999"/>
<path stroke-linejoin="miter" d="m429.39,185.04c4.9503-7.0677,8.0197-9.6926,5.6981-23.254-2.3215-13.562-10.092-24.864-14.365-25.056-4.2734-0.19122-6.2513,6.3665-1.5934,15.891,6.819,13.943,6.456,17.775,10.26,32.419z" stroke="#000" stroke-linecap="butt" stroke-width="2" fill="#999"/>
<path stroke-linejoin="miter" d="m397.16,172.05c4.483-4.6314,6.5766-9.8968,3.0568-22.407s-11.935-22.361-15.968-22.118c-4.0332,0.2423-5.2438,6.5978,0.0721,15.085,7.7823,12.425,7.8197,16.06,12.839,29.441z" stroke="#000" stroke-linecap="butt" stroke-width="2" fill="#999"/>
<path stroke-linejoin="miter" d="m498.26,290.89c-7.4033-10.73-17.229-17.985-27.414-24.282-10.185-6.2971-30.729-11.616-34.439-7.4323-3.7094,4.1835,1.3248,11.587,14.831,14.69,19.772,4.5423,29.018,8.8435,47.022,17.025z" stroke="#000" stroke-linecap="butt" stroke-width="2" fill="#999"/>
<path stroke-linejoin="miter" d="m501.77,353.46c-1.8414-15.719-8.726-23.691-15.316-35.073-6.5899-11.382-21.71-23.576-26.762-21.385-5.0528,2.1905-4.6405,14.395,6.1243,22.787,15.759,12.285,23.288,18.874,35.954,33.672z" stroke="#000" stroke-linecap="butt" stroke-width="2" fill="#999"/>
<path stroke-linejoin="miter" d="m484.56,410.36c2.9963-13.759,2.8723-22.186-0.48855-35.257-3.3609-13.071-19.149-29.385-24.68-28.565-5.5307,0.82042-6.433,9.7276,1.9186,20.786,12.227,16.189,14.717,25.196,23.25,43.036z" stroke="#000" stroke-linecap="butt" stroke-width="2" fill="#999"/>
<path stroke-linejoin="miter" d="m452.58,447.31s11.09-16.407,9.2999-34.301c-1.7905-17.894-10.891-33.34-16.446-33.979-5.5546-0.63899-8.7315,7.7312-3.5266,20.574,6.7328,16.634,10.672,47.706,10.672,47.706z" stroke="#000" stroke-linecap="butt" stroke-width="2" fill="#999"/>
<path stroke-linejoin="miter" d="m417.31,473.1c10.926-9.1344,10.982-15.91,14.158-24.246,3.1757-8.3354-1.5806-29.276-5.9272-30.993-4.3466-1.7176-8.7225,4.3532-7.2985,15.849,3.1609,17.655-2.2279,32.601-0.93231,39.39z" stroke="#000" stroke-linecap="butt" stroke-width="2" fill="#999"/>
<path stroke-linejoin="miter" d="m373.81,497.06c7.5951-7.8064,12.224-8.7157,19.577-21.827,7.3534-13.111,11.277-27.301,7.7805-30.401-3.497-3.1007-14.039,4.7276-16.529,17.897-2.4896,13.169-9.971,27.896-10.829,34.331z" stroke="#000" stroke-linecap="butt" stroke-width="2" fill="#999"/>
<path stroke-linejoin="miter" d="m367.63,160.78c3.0649,4.4116,2.9919,8.5858-2.6955,16.966-5.6874,8.3805-14.682,13.8-17.854,12.781-3.172-1.0193-2.6824-5.9033,3.5191-10.977,9.0788-7.4274,9.943-10.069,17.03-18.77z" stroke="#000" stroke-linecap="butt" stroke-width="2" fill="#999"/>
<path stroke-linejoin="miter" d="m392.2,171.79c2.3144,4.7311,1.3091,9.8053-5.8901,17.881-7.1992,8.0762-17.09,12.376-20.02,10.722-2.9294-1.6532-1.5158-6.8504,5.5589-11.261,10.357-6.4564,11.712-9.1632,20.351-17.343z" stroke="#000" stroke-linecap="butt" stroke-width="2" fill="#999"/>
<path stroke-linejoin="miter" d="m423.03,187.54c-1.7135,6.8536-0.45498,10.876-9.7994,18.252-9.3444,7.3761-20.884,10.145-23.743,7.794-2.8585-2.3512-0.33367-7.713,8.1755-11.14,12.457-5.0174,14.442-7.6917,25.367-14.905z" stroke="#000" stroke-linecap="butt" stroke-width="2" fill="#999"/>
<path stroke-linejoin="miter" d="m461.38,222.11c-5.4796,8.0136-6.0171,11.61-19.936,14.897-13.919,3.2868-27.89,0.44274-29.809-3.5686-1.9187-4.0113,3.5527-8.5673,14.558-7.9787,16.111,0.86176,19.63-1.042,35.187-3.3498z" stroke="#000" stroke-linecap="butt" stroke-width="2" fill="#999"/>
<path style="baseline-shift:baseline;block-progression:tb;color:#000000;direction:ltr;text-indent:0;text-align:start;enable-background:accumulate;text-transform:none;" d="m344.4,504.8s-2.1838,0.42423-4.413,1.2997c-1.1147,0.43774-2.2471,0.95094-3.3249,1.8438-0.5389,0.44643-1.108,1.0232-1.5113,1.8438-0.4034,0.82062-0.5648,1.9438-0.3023,2.9622,2.4029,9.3218,8.6143,14.287,15.355,18.801,2.3628,1.5821,4.131,2.3507,5.8034,2.7506,1.6725,0.39988,2.9735,0.46517,5.3803,1.0579,2.5622,0.631,7.4169,4.2514,11.093,7.7983,3.676,3.5469,6.4381,6.8916,6.4381,6.8916l4.4433-3.7178s-2.9249-3.5467-6.8614-7.3449c-3.9364-3.7982-8.6295-7.9949-13.723-9.2492-2.7412-0.67507-4.3418-0.83258-5.4105-1.0881-1.0688-0.25555-1.8868-0.5667-3.9294-1.9345-6.242-4.1796-10.562-7.6565-12.634-14.539,0.3401-0.20932,0.7033-0.43077,1.2997-0.66498,1.6125-0.63327,3.476-1.0277,3.476-1.0277l-1.1788-5.6825z" stroke="#000" stroke-width="2.90170741" fill="#FFF"/>
<path style="baseline-shift:baseline;block-progression:tb;color:#000000;direction:ltr;text-indent:0;text-align:start;enable-background:accumulate;text-transform:none;" d="m325.33,503.86-2.7203,5.1082s2.1778,1.1646,4.3526,2.811c2.1746,1.6464,3.8636,4.0068,3.8991,4.413,0.1457,1.6657-0.7863,3.7345-2.5995,5.6221-1.8131,1.8876-4.4062,3.4234-6.5288,4.0201-0.6189,0.17396-3.5876-0.32494-6.015-1.3602-2.4274-1.0352-4.413-2.2367-4.413-2.2367l-2.9924,4.9873s2.2509,1.3507,5.1083,2.5692c2.8572,1.2186,6.2382,2.657,9.8838,1.6322,3.3194-0.93306,6.5909-2.9188,9.1586-5.5918,2.5676-2.6731,4.5183-6.1904,4.1712-10.156-0.3636-4.1541-3.5554-6.5471-6.1661-8.5238-2.6109-1.9766-5.1385-3.2946-5.1385-3.2946z" stroke="#000" stroke-width="2.90170741" fill="#FFF"/>
<path style="baseline-shift:baseline;block-progression:tb;color:#000000;direction:ltr;text-indent:0;text-align:start;enable-background:accumulate;text-transform:none;" d="m335.98,462.01c-1.9287-0.15714-3.9096-0.10094-5.9243,0.27204-4.1779,0.77339-8.8336,2.1228-12.997,4.3828-4.1637,2.26-7.9352,5.5252-9.7026,10.156-3.2918,8.6248-0.2921,6.956,3.6501,16.194,3.942,9.2384,11.241,14.7,11.241,14.7l5.9039-1.6175s-8.054-6.6135-11.795-15.38c-3.7407-8.7667-5.6259-6.5064-3.5895-11.842,1.1008-2.8843,3.6418-5.2571,7.0427-7.1031,3.401-1.846,7.5729-3.0875,11.304-3.7783,5.6329-1.0427,12.179,1.7972,19.163,3.8387,2.091,0.61114,4.1429,0.79475,5.6523,1.1788,1.5094,0.38407,2.1078,0.7809,2.3577,1.2695,2.7992,5.4747-0.2175,4.0694-3.9671,13.746-3.7494,9.6767-11.578,18.629-11.578,18.629l4.2546,2.9319s8.7875-9.2594,12.734-19.445c3.9468-10.186,8.2618-9.6492,3.7251-18.522-1.3471-2.6346-3.9707-3.6884-6.1057-4.2317-2.1349-0.54324-4.1647-0.74542-5.4407-1.1184-4.7856-1.3988-10.143-3.7905-15.929-4.2619z" stroke="#000" stroke-width="2.90170741" fill="#FFF"/>
<path stroke-linejoin="miter" d="m249.2,510.87c16.351-7.5265,32.702-8.7281,49.053-8.9815" stroke="#000" stroke-linecap="butt" stroke-miterlimit="4" stroke-dasharray="none" stroke-width="2.41808963" fill="none"/>
<path stroke-linejoin="miter" d="m193.93,466.65c9.9903-3.4911,26.17,1.2697,41.453,4.8362" stroke="#000" stroke-linecap="butt" stroke-miterlimit="4" stroke-dasharray="none" stroke-width="2.41808963" fill="none"/>
<path stroke-linejoin="miter" d="m232.85,445.4c-0.26922-1.9107-3.7533-1.9182-3.2766-3.7642,0.47681-1.8461,3.9621-1.8504,5.111-3.7667s-1.452-4.0097-0.0321-5.3264c1.4215-1.3173,3.0125,1.1706,4.5614,1.0088,1.5488-0.16178,3.8428-2.7856,5.387-1.9607,1.5442,0.82489-1.7866,4.1615-0.18193,5.7856s6.4678-1.2482,7.745,1.3753c1.2773,2.6234-5.5074,5.8966-4.5279,8.5112,0.97972,2.6146,5.8531,0.25527,6.6434,2.5388,0.79054,2.2834-4.0458,4.2668-3.7939,6.3376,0.25178,2.0708,3.1085,1.5693,3.6132,3.6417,0.50454,2.0724,0.92928,5.5405-2.2937,7.3168-3.223,1.7762-9.9851-0.6348-11.664-3.7617s1.0435-3.6152-0.0631-6.459c-1.1068-2.8437-9.0791-2.6533-10.012-5.5071-0.93238-2.8538,3.053-4.0593,2.7839-5.97z" stroke="#000" stroke-linecap="butt" stroke-width="2" fill="#666"/>
<path stroke-linejoin="miter" d="m280.29,460.43c-4.7432,12.405-8.2273,24.39-2.0727,33.162" stroke="#000" stroke-linecap="butt" stroke-miterlimit="4" stroke-dasharray="none" stroke-width="2.41808963" fill="none"/>
<path stroke-linejoin="miter" d="m222.47,372.26c2.2061-1.4337,0.2076-5.7434,2.7635-6.218,2.556-0.47459,4.5698,3.8295,7.5998,4.1453,3.03,0.31548,4.1162-4.1067,6.5633-3.109,2.447,0.9976,0.2894,4.3973,1.3817,6.218,1.0924,1.8206,5.6566,3.1435,5.5271,5.5271-0.1295,2.3835-6.1719,0.19015-7.2543,3.109-1.0821,2.9188,5.2694,7.2732,2.7636,10.363-2.5058,3.09-10.46-3.4079-13.127-0.69089-2.6666,2.7171,3.0573,7.3799,0.6909,9.6724-2.3664,2.2924-7.6039-2.5408-10.018-1.0363-2.4138,1.5045-0.1479,4.7456-2.4181,6.5634s-6.3111,4.341-10.363,1.3818c-4.0522-2.9592-4.9693-12.705-2.0727-16.581,2.8966-3.8765,5.0688-0.79373,7.9452-3.7999,2.8764-3.0061-1.953-12.748,1.0363-15.545,2.9892-2.7966,6.7754,1.4337,8.9815,0.00001z" stroke="#000" stroke-linecap="butt" stroke-width="2" fill="#666"/>
<path stroke-linejoin="miter" d="m223.64,425.89c-3.1345,9.8183-10.769,16.936-5.5271,31.781" stroke="#000" stroke-linecap="butt" stroke-miterlimit="4" stroke-dasharray="none" stroke-width="2.41808963" fill="none"/>
<path stroke-linejoin="miter" d="m202.46,331.18c2.5633-0.59268,2.1593-5.326,4.7234-4.8978,2.5642,0.42827,2.9846,5.1615,5.7237,6.4946,2.7395,1.3328,5.2726-2.4512,7.2308-0.67667,1.9583,1.7744-1.232,4.2311-0.8281,6.3156,0.4037,2.0844,4.2402,4.8886,3.3033,7.0841s-5.8648-1.9322-7.8801,0.44039c-2.0152,2.3726,2.464,8.6368-0.9476,10.683-3.4115,2.0466-8.6637-6.78-12.099-5.1388-3.435,1.6412,0.3489,7.9805-2.6589,9.3253-3.0077,1.3448-6.2763-4.9884-9.0591-4.4001-2.7829,0.58818-1.7621,4.4088-4.5172,5.3405-2.7549,0.93171-7.4152,1.9207-10.211-2.246-2.7956-4.1666-0.3242-13.638,3.7235-16.29,4.0477-2.6521,5.0345,0.98776,8.7656-0.85332,3.7311-1.841,2.525-12.647,6.2904-14.253,3.7655-1.6056,5.8765,3.6645,8.4399,3.0718z" stroke="#000" stroke-linecap="butt" stroke-width="2" fill="#666"/>
<path stroke-linejoin="miter" d="m153.17,410.69c1.9598-2.4113,25.912,4.5021,26.944,7.5997" stroke="#000" stroke-linecap="butt" stroke-miterlimit="4" stroke-dasharray="none" stroke-width="2.41808963" fill="none"/>
<path stroke-linejoin="miter" d="m190.38,284.67c2.0399-0.10758,2.3692-3.7813,4.272-3.1081,1.9029,0.67317,1.5862,4.349,3.5008,5.7376,1.915,1.3884,4.362-1.1634,5.6201,0.45747,1.2581,1.6207-1.5125,3.0691-1.4848,4.7174,0.0279,1.6482,2.5832,4.3096,1.5708,5.862s-4.2239-2.2682-6.0846-0.72569c-1.8609,1.5425,0.71958,6.9361-2.165,8.0411-2.8844,1.1049-5.7104-6.3522-8.5582-5.5605-2.8478,0.79175-0.80927,6.1491-3.2904,6.7719-2.4811,0.62274-4.1264-4.6604-6.3336-4.5858-2.2071,0.0745-1.9418,3.1335-4.1739,3.4745-2.2321,0.34096-5.9289,0.46882-7.5046-3.094-1.5759-3.5628,1.5907-10.472,5.0433-11.954,3.4525-1.4821,3.7163,1.434,6.8174,0.52937,3.1011-0.90465,3.6359-9.3301,6.7315-10.05,3.0957-0.71997,3.9993,3.5943,6.0392,3.4867z" stroke="#000" stroke-linecap="butt" stroke-width="1.55283999" fill="#666"/>
<path stroke-linejoin="miter" d="m193.93,378.22c-7.7762,8.4119-19.361,11.491-18.654,31.781" stroke="#000" stroke-linecap="butt" stroke-miterlimit="4" stroke-dasharray="none" stroke-width="2.41808963" fill="none"/>
<path stroke-linejoin="miter" d="m241.53,235.72c2.1017,1.5826,5.468-1.7693,6.7882,0.47019,1.32,2.2395-2.0356,5.604-1.2961,8.5592,0.7399,2.9553,5.2669,2.4635,5.1663,5.1042-0.1005,2.6406-4.0331,1.7759-5.3703,3.4251-1.3373,1.6492-1.0194,6.3906-3.3034,7.0841-2.2842,0.69355-2.2897-5.7347-5.4026-5.7534-3.113-0.0187-5.0324,7.4392-8.7932,6.1413-3.7606-1.2979-0.3751-10.995-3.8403-12.571-3.4652-1.5765-5.8892,5.397-8.8528,3.9574-2.9635-1.4397-0.213-8.0144-2.4524-9.7681s-4.51,1.4841-6.9946-0.0275c-2.4846-1.5115-6.2377-4.4458-4.8429-9.2656,1.3949-4.8198,10.239-9.0148,14.872-7.6188,4.6334,1.396,2.4795,4.4916,6.2882,6.1664,3.8086,1.6748,11.311-6.1953,14.962-4.3428,3.6503,1.8525,0.9701,6.8571,3.0718,8.4398z" stroke="#000" stroke-linecap="butt" stroke-width="2" fill="#666"/>
<path stroke-linejoin="miter" d="m132.44,347.82c10.182,1.2673,19.294,10.025,27.635,24.181" stroke="#000" stroke-linecap="butt" stroke-miterlimit="4" stroke-dasharray="none" stroke-width="2.41808963" fill="none"/>
<path stroke-linejoin="miter" d="m276.64,191.8c2.2317,1.3934,5.293-2.2392,6.8034-0.12324,1.5102,2.116-1.5395,5.7601-0.5452,8.6396,0.9946,2.8796,5.4615,1.995,5.5915,4.6345,0.13,2.6393-3.863,2.1206-5.0514,3.8802-1.1884,1.7594-0.4584,6.4551-2.6734,7.345-2.215,0.88999-2.7807-5.5134-5.8834-5.2606-3.1028,0.25271-4.3649,7.8495-8.2244,6.8843-3.8596-0.96515-1.3321-10.92-4.9215-12.189-3.5894-1.2685-5.3964,5.8898-8.4742,4.7139-3.0777-1.1759-0.9107-7.9653-3.2945-9.5172-2.3836-1.5519-4.3634,1.8715-6.9703,0.58225s-6.6014-3.8853-5.6321-8.8083c0.9696-4.9231,9.4143-9.8729,14.152-8.886,4.7375,0.98689,2.8615,4.2584,6.8017,5.5948,3.94,1.3365,10.728-7.1576,14.526-5.6303,3.7979,1.5273,1.5641,6.7465,3.7957,8.14z" stroke="#000" stroke-linecap="butt" stroke-width="2" fill="#666"/>
<path stroke-linejoin="miter" d="m182.18,320.18c-10.296,6.9219-19.372,15.471-24.181,29.708" stroke="#000" stroke-linecap="butt" stroke-miterlimit="4" stroke-dasharray="none" stroke-width="2.41808963" fill="none"/>
<path stroke-linejoin="miter" d="m200.19,505.2c-2.5737-0.54617-4.2079,3.9144-6.3508,2.4426s-0.5232-5.9393-2.4427-8.305-5.8145-0.007-6.8394-2.4426c-1.0249-2.4357,2.9048-3.314,3.4197-5.3738,0.515-2.0598-1.777-6.2226,0-7.8164,1.7771-1.5938,4.4988,4.2298,7.3279,2.9312,2.8292-1.2986,1.4169-8.869,5.3738-9.282,3.957-0.41305,4.9867,9.8062,8.7935,9.7706,3.8069-0.0357,3.0566-7.3802,6.3509-7.3279s3.5802,7.1734,6.3509,7.8164c2.7706,0.643,3.4602-3.2511,6.3508-2.9312s7.5322,1.3931,8.305,6.3509-5.4698,12.497-10.259,13.19c-4.7893,0.69292-4.1454-3.0229-8.305-2.9312s-7.6334,10.395-11.725,10.259c-4.0912-0.13622-3.7772-5.8047-6.3509-6.3509z" stroke="#000" stroke-linecap="butt" stroke-width="2" fill="#666"/>
<path stroke-linejoin="miter" d="m131.06,275.97c10.451,10.95,19.483,25.447,26.254,45.598" stroke="#000" stroke-linecap="butt" stroke-miterlimit="4" stroke-dasharray="none" stroke-width="2.41808963" fill="none"/>
<path stroke-linejoin="miter" d="m110.61,308.46c-1.4338-2.2061-5.7435-0.20758-6.218-2.7635-0.4746-2.556,3.8295-4.5698,4.1453-7.5997,0.3155-3.0301-4.1067-4.1163-3.109-6.5634,0.9976-2.447,4.3974-0.28939,6.218-1.3818s3.1435-5.6566,5.5271-5.5271c2.3834,0.1295,0.1901,6.172,3.1089,7.2543,2.9189,1.0822,7.2732-5.2694,10.363-2.7635,3.0899,2.5058-3.408,10.46-0.6909,13.127,2.7171,2.6666,7.3799-3.0573,9.6724-0.69088,2.2923,2.3664-2.541,7.604-1.0364,10.018,1.5045,2.4139,4.7456,0.14791,6.5633,2.4181,1.8179,2.2702,4.3411,6.3111,1.3818,10.363-2.9591,4.0521-12.705,4.9692-16.581,2.0726-3.8766-2.8966-0.7938-5.0687-3.7999-7.9452-3.0062-2.8764-12.748,1.9529-15.545-1.0363-2.7966-2.9892,1.4337-6.7754,0-8.9815z" stroke="#000" stroke-linecap="butt" stroke-width="2" fill="#666"/>
<path stroke-linejoin="miter" d="m195.31,257.31c-11.667,2.3126-22.644,8.7578-32.472,22.108" stroke="#000" stroke-linecap="butt" stroke-miterlimit="4" stroke-dasharray="none" stroke-width="2.41808963" fill="none"/>
<path stroke-linejoin="miter" d="m125.72,246.86c-0.9237-2.1742-5.0462-1.079-5.0673-3.4131-0.021-2.3341,4.0987-3.4437,4.8503-6.0736,0.7515-2.6302-2.9895-4.2801-1.7257-6.2883,1.2637-2.0082,3.9334,0.4297,5.7136-0.25234,1.7801-0.68207,3.6616-4.5117,5.749-4.0255,2.0874,0.48613-0.7942,5.4872,1.618,6.8992s7.2528-3.5254,9.5945-0.82783c2.3416,2.6975-4.6444,8.7179-2.6576,11.499,1.9868,2.7815,7.0023-1.5528,8.6603,0.89715,1.6582,2.4499-3.4322,6.3276-2.4782,8.6965,0.954,2.369,4.1731,0.87071,5.4266,3.1615,1.2533,2.2908,2.8545,6.2574-0.394,9.379-3.2484,3.1216-12.009,2.4132-14.985-0.75254-2.9762-3.1657,0.088-4.6057-2.1212-7.6179-2.2097-3.0122-11.577-0.26079-13.584-3.34-2.0067-3.0792,2.3241-5.7675,1.4004-7.9418z" stroke="#000" stroke-linecap="butt" stroke-width="2" fill="#666"/>
<path stroke-linejoin="miter" d="m150.4,216.55c7.625,3.3798,15.31,6.3083,19.345,36.617" stroke="#000" stroke-linecap="butt" stroke-miterlimit="4" stroke-dasharray="none" stroke-width="2.41808963" fill="none"/>
<path stroke-linejoin="miter" d="m161.09,182.25c0.3197-2.6115-4.2663-3.8508-2.987-6.1138,1.2795-2.263,5.8711-1.0391,8.0606-3.1572,2.1893-2.1184-0.5001-5.793,1.8372-7.0262,2.3371-1.2332,3.5546,2.6048,5.6514,2.9383,2.0969,0.3335,6.0441-2.3126,7.7868-0.68125,1.7425,1.6313-3.8217,4.8502-2.2814,7.5555,1.5403,2.7052,8.9587,0.63853,9.7151,4.5444,0.7563,3.9058-9.3344,5.8224-8.967,9.6116s7.6185,2.4017,7.8536,5.688c0.2349,3.2863-6.8342,4.1918-7.2332,7.0079-0.3992,2.8162,3.5402,3.1637,3.4734,6.0712-0.067,2.9075-0.7313,7.6249-5.6028,8.8269-4.8716,1.2019-12.926-4.3598-14.034-9.0704-1.1078-4.7107,2.65-4.3931,2.1961-8.5288-0.4538-4.1358-11.021-6.6984-11.242-10.786-0.2208-4.0875,5.4534-4.2687,5.7733-6.8802z" stroke="#000" stroke-linecap="butt" stroke-width="2" fill="#666"/>
<path stroke-linejoin="miter" d="m222.95,212.41c-11.515-4.8007-23.029,3.3024-34.544,11.054" stroke="#000" stroke-linecap="butt" stroke-miterlimit="4" stroke-dasharray="none" stroke-width="2.41808963" fill="none"/>
<path stroke-linejoin="miter" d="m217.75,137.08c1.1937-2.3446-2.6919-5.0777-0.7157-6.7667,1.9763-1.689,5.8724,1.0315,8.6542-0.20992,2.7819-1.2418,1.5114-5.6146,4.1295-5.9741,2.618-0.35956,2.4494,3.6635,4.3057,4.694,1.8563,1.0306,6.4705-0.10591,7.5501,2.023,1.0796,2.129-5.25,3.2507-4.7279,6.3196,0.5222,3.0689,8.2,3.6641,7.5749,7.5931-0.625,3.929-10.763,2.2787-11.714,5.9651-0.9508,3.6863,6.3376,4.8625,5.4345,8.031-0.9032,3.1685-7.8557,1.6015-9.1939,4.1114-1.3382,2.5098,2.2447,4.1837,1.1876,6.8931-1.0572,2.7093-3.2952,6.915-8.284,6.3783-4.9888-0.53673-10.656-8.518-10.086-13.323,0.5702-4.8055,3.9928-3.2218,4.9807-7.2634,0.9881-4.0416-8.0654-10.064-6.8749-13.98,1.1905-3.9165,6.5845-2.1461,7.7782-4.4907z" stroke="#000" stroke-linecap="butt" stroke-width="2" fill="#666"/>
<path stroke-linejoin="miter" d="m198.77,168.19c4.5156,16.453,1.862,30.038-2.7636,42.835" stroke="#000" stroke-linecap="butt" stroke-miterlimit="4" stroke-dasharray="none" stroke-width="2.41808963" fill="none"/>
<path stroke-linejoin="miter" d="m118.67,385.53c-2.3446-1.1937-5.0777,2.6919-6.7667,0.7157-1.689-1.9763,1.0315-5.8723-0.2099-8.6542-1.2419-2.7819-5.6146-1.5115-5.9742-4.1296-0.3595-2.618,3.6635-2.4493,4.694-4.3056,1.0305-1.8564-0.1059-6.4705,2.0231-7.5501,2.1289-1.0796,3.2507,5.25,6.3195,4.7279,3.069-0.52217,3.6641-8.2,7.5931-7.5749,3.929,0.62512,2.2787,10.763,5.9652,11.714,3.6863,0.95083,4.8625-6.3377,8.0309-5.4345,3.1686,0.90317,1.6016,7.8556,4.1115,9.1938,2.5098,1.3382,4.1837-2.2447,6.8932-1.1876,2.7092,1.0571,6.9148,3.2951,6.3782,8.2839-0.5367,4.9888-8.518,10.656-13.324,10.086-4.8054-0.57023-3.2216-3.9928-7.2633-4.9808-4.0416-0.98803-10.064,8.0654-13.98,6.8749-3.9166-1.1905-2.1461-6.5845-4.4907-7.7782z" stroke="#000" stroke-linecap="butt" stroke-width="2" fill="#666"/>
<path stroke-linejoin="miter" d="m151.56,451.27c-2.4396-0.98478-4.8237,3.1242-6.6784,1.3027-1.8549-1.8215,0.5157-5.9399-0.9634-8.603-1.4796-2.6631-5.7251-1.0164-6.3113-3.5932-0.5865-2.5766,3.436-2.7592,4.3008-4.6983s-0.6694-6.4367,1.3573-7.6977c2.0268-1.261,3.6959,4.9468,6.7076,4.1591,3.0118-0.78766,2.9355-8.4882,6.904-8.2079,3.9685,0.28031,3.2081,10.523,6.9633,11.149,3.7552,0.62592,4.2917-6.7374,7.5268-6.1138,3.2352,0.62357,2.2802,7.6862,4.8971,8.8005,2.617,1.1144,3.9722-2.6008,6.7634-1.7838,2.7912,0.81699,7.1758,2.6799,7.0759,7.6965-0.1,5.0166-7.5568,11.358-12.394,11.208-4.8368-0.14925-3.5574-3.6968-7.6697-4.3288-4.1123-0.63202-9.3227,8.9118-13.328,8.0672-4.0054-0.8446-2.7118-6.3724-5.1516-7.3572z" stroke="#000" stroke-linecap="butt" stroke-width="2" fill="#666"/>
<path d="m224.67,424.51a6.4714,5.4098,25,0,1,-4.5726,9.8059,6.4714,5.4098,25,1,1,4.5726,-9.8059z" stroke="#000" stroke-width="2" fill="#999"/>
<path d="m229.05,415.23a5.2984,8.3748,25,1,1,-7.0787,15.18,5.2984,8.3748,25,1,1,7.0787,-15.18z" stroke="#000" stroke-width="1.93447161" fill="#CCC"/>
<path d="m131.36,276.91a5.4098,6.4715,40,1,1,8.2883,6.9547,5.4098,6.4715,40,1,1,-8.2883,-6.9547z" stroke="#000" stroke-width="2" fill="#999"/>
<path d="m123.54,270.28a8.3748,5.2984,40,0,1,12.831,10.766,8.3748,5.2984,40,0,1,-12.831,-10.766z" stroke="#000" stroke-width="1.93447161" fill="#CCC"/>
<path d="m128.49,345.88a5.4098,6.4715,15,1,1,10.451,2.8003,5.4098,6.4715,15,0,1,-10.451,-2.8003z" stroke="#000" stroke-width="2" fill="#999"/>
<path d="m118.59,343.19a8.3748,5.2984,15,1,1,16.179,4.3351,8.3748,5.2984,15,1,1,-16.179,-4.3351z" stroke="#000" stroke-width="1.93447161" fill="#CCC"/>
<path d="m152.44,410.64a6.4714,5.4098,85,0,1,10.778,-0.94299,6.4714,5.4098,85,1,1,-10.778,0.94299z" stroke="#000" stroke-width="2" fill="#999"/>
<path d="m142.22,411.49a5.2984,8.3748,85,1,1,16.686,-1.4598,5.2984,8.3748,85,0,1,-16.686,1.4598z" stroke="#000" stroke-width="1.93447161" fill="#CCC"/>
<path d="m191.07,466.85a6.4715,5.4098,80,0,1,10.655,-1.8788,6.4715,5.4098,80,0,1,-10.655,1.8788z" stroke="#000" stroke-width="2" fill="#999"/>
<path d="m180.97,468.58a5.2984,8.3749,80,0,1,16.495,-2.9085,5.2984,8.3749,80,1,1,-16.495,2.9085z" stroke="#000" stroke-width="1.93447161" fill="#CCC"/>
<path d="m247.5,511.88a6.4715,5.4099,65,1,1,9.806,-4.5726,6.4715,5.4099,65,0,1,-9.806,4.5726z" stroke="#000" stroke-width="2" fill="#999"/>
<path d="m238.19,516.17a5.2984,8.3749,65,1,1,15.18,-7.0787,5.2984,8.3749,65,0,1,-15.18,7.0787z" stroke="#000" stroke-width="1.93447161" fill="#CCC"/>
<path d="m279.38,461.08a6.4714,5.4098,15,1,1,-2.8003,10.451,6.4714,5.4098,15,1,1,2.8003,-10.451z" stroke="#000" stroke-width="2" fill="#999"/>
<path d="m282.08,451.18a5.2984,8.3748,15,1,1,-4.335,16.179,5.2984,8.3748,15,1,1,4.335,-16.179z" stroke="#000" stroke-width="1.93447161" fill="#CCC"/>
<path d="m193.25,377.58a6.4714,5.4098,50,1,1,-8.2882,6.9547,6.4714,5.4098,50,1,1,8.2882,-6.9547z" stroke="#000" stroke-width="2" fill="#999"/>
<path d="m201.14,371.03a5.2984,8.3748,50,0,1,-12.831,10.766,5.2984,8.3748,50,1,1,12.831,-10.766z" stroke="#000" stroke-width="1.93447161" fill="#CCC"/>
<path d="m182.63,320.79a6.4715,5.4098,60,0,1,-9.3701,5.4098,6.4715,5.4098,60,1,1,9.3701,-5.4098z" stroke="#000" stroke-width="2" fill="#999"/>
<path d="m191.54,315.71a5.2984,8.3748,60,1,1,-14.506,8.3748,5.2984,8.3748,60,1,1,14.506,-8.3748z" stroke="#000" stroke-width="1.93447149" fill="#CCC"/>
<path d="m195.86,258.7a6.4715,5.4098,80,0,1,-10.655,1.8788,6.4715,5.4098,80,1,1,10.655,-1.8788z" stroke="#000" stroke-width="2" fill="#999"/>
<path d="m205.97,256.97a5.2984,8.3748,80,1,1,-16.495,2.9085,5.2984,8.3748,80,1,1,16.495,-2.9085z" stroke="#000" stroke-width="1.93447161" fill="#CCC"/>
<path d="m224.28,210.79a5.4098,6.4714,0,1,1,-10.82,0,5.4098,6.4714,0,1,1,10.82,0z" stroke="#000" stroke-width="2" fill="#999"/>
<path d="m234.54,210.83a8.3748,5.2984,0,0,1,-16.75,0,8.3748,5.2984,0,1,1,16.75,0z" stroke="#000" stroke-width="1.93447161" fill="#CCC"/>
<path d="m149.73,215.79a5.4098,6.4714,30,1,1,9.37,5.4098,5.4098,6.4714,30,1,1,-9.37,-5.4098z" stroke="#000" stroke-width="2" fill="#999"/>
<path d="m140.87,210.62a8.3748,5.2984,30,0,1,14.506,8.3748,8.3748,5.2984,30,1,1,-14.506,-8.3748z" stroke="#000" stroke-width="1.93447149" fill="#CCC"/>
<path d="m197.45,169.55a5.4098,6.4714,75,1,1,2.8003,10.451,5.4098,6.4714,75,1,1,-2.8003,-10.451z" stroke="#000" stroke-width="2" fill="#999"/>
<path d="m194.84,159.63a8.3748,5.2984,75,1,1,4.335,16.179,8.3748,5.2984,75,1,1,-4.335,-16.179z" stroke="#000" stroke-width="1.93447161" fill="#CCC"/>
<path stroke-linejoin="miter" d="m244.06,447.8c2.6035,9.9547-0.36382,22.18,13.787,37.855" stroke="#000" stroke-linecap="butt" stroke-width="2.49354267" fill="none"/>
<path stroke-linejoin="miter" d="m207.75,494.29c21.464-4.4814,48.165-4.6427,73.924,1.3818" stroke="#000" stroke-linecap="butt" stroke-width="2.90170741" fill="none"/>
<path stroke-linejoin="miter" d="m164.91,440.4c16.811,1.3669,33.623,6.02,50.434,16.581" stroke="#000" stroke-linecap="butt" stroke-width="2.90170741" fill="none"/>
<path stroke-linejoin="miter" d="m131.75,376.84c11.758,4.524,23.352,8.6352,38.689,22.108" stroke="#000" stroke-linecap="butt" stroke-width="2.90170741" fill="none"/>
<path stroke-linejoin="miter" d="m222.26,389.27c-16.525,12.234-32.72,24.632-27.635,47.671" stroke="#000" stroke-linecap="butt" stroke-width="2.90170741" fill="none"/>
<path stroke-linejoin="miter" d="m123.46,308.44c12.774,12.113,27.59,18.1,35.235,45.598" stroke="#000" stroke-linecap="butt" stroke-width="2.90170741" fill="none"/>
<path stroke-linejoin="miter" d="m200.84,344.37c-15.764,7.7262-36.276,10.704-40.071,30.399" stroke="#000" stroke-linecap="butt" stroke-width="2.90170741" fill="none"/>
<path stroke-linejoin="miter" d="m138.66,246.95c8.5192,14.972,18.534,26.953,20.036,55.962" stroke="#000" stroke-linecap="butt" stroke-width="2.90170741" fill="none"/>
<path stroke-linejoin="miter" d="m187.08,293.68c-15.266,7.9942-26.992,3.2641-29.079,24.437" stroke="#000" stroke-linecap="butt" stroke-width="2.90170741" fill="none"/>
<path stroke-linejoin="miter" d="m172.51,187.54c1.719,20.797,6.3733,39.917-4.1452,67.707" stroke="#000" stroke-linecap="butt" stroke-width="2.90170741" fill="none"/>
<path stroke-linejoin="miter" d="m236.76,243.5c-18.884-4.1766-37.768-20.907-56.652-10.363" stroke="#000" stroke-linecap="butt" stroke-width="2.90170741" fill="none"/>
<path stroke-linejoin="miter" d="m226.4,143.32c-5.451,17.925-8.4032,34.6-20.726,55.962" stroke="#000" stroke-linecap="butt" stroke-width="2.90170741" fill="none"/>
<path stroke-linejoin="miter" d="m273.38,201.35c-18.744-4.4967-38.086-11.987-60.107-8.2906" stroke="#000" stroke-linecap="butt" stroke-width="2.90170741" fill="none"/>
<path stroke-linejoin="miter" d="m335.56,510.18c14.438,11.816,31.644,20.863,49.744,29.017" stroke="#000" stroke-linecap="butt" stroke-width="5.80341482" fill="none"/>
<path stroke-linejoin="miter" d="m283.05,537.81c15.065-1.8987,33.861-14.993,52.507-27.635" stroke="#000" stroke-linecap="butt" stroke-width="5.80341482" fill="none"/>
<rect height="10.271" width="14.509" stroke="#000" stroke-dasharray="none" stroke-miterlimit="4" y="506.28" x="328.65" stroke-width="2.9017" fill="#FFF"/>
<path stroke-linejoin="round" style="baseline-shift:baseline;block-progression:tb;color:#000000;direction:ltr;text-indent:0;text-align:start;enable-background:accumulate;text-transform:none;" d="m303.93,519.34c-0.6927,0.0746-1.4134,0.27329-2.1461,0.6952-2.2088,1.2719-3.5137,3.383-4.1409,5.4407-0.6271,2.0577-0.7567,4.1267-0.8463,6.1057-0.1794,3.958-0.4428,7.3655-1.6927,8.8865-1.0634,1.294-4.5575,3.3717-7.6774,4.7153-3.12,1.3436-5.8337,2.1763-5.8337,2.1763l1.7229,5.5616s2.9681-0.90654,6.408-2.3879c3.4398-1.4813,7.3864-3.3385,9.8839-6.3777,3.1172-3.7934,2.8226-8.5541,2.9924-12.302,0.085-1.874,0.2258-3.5416,0.5742-4.685,0.3485-1.1434,0.7095-1.6715,1.4812-2.1158-0.2676,0.15401-0.068,0.0195,0.4533,0.0906,0.5212,0.0712,1.2689,0.2946,1.9949,0.57429,1.4521,0.55939,2.7204,1.2695,2.7204,1.2695l4.2754-2.7889s-2.9308-3.1587-4.9101-3.9213c-0.9898-0.38128-2.0799-0.71067-3.2947-0.87656-0.6074-0.083-1.272-0.13498-1.9647-0.0605z" stroke="#000" stroke-linecap="round" stroke-width="2.90170741" fill="#FFF"/>
<path stroke-linejoin="miter" d="m357.79,157.01s66.326,18.609,91.15,46.051c21.608,23.887,40.36,50.751,47.657,82.124,11.245,48.343,14.217,88.534-12.586,130.31-28.987,45.177-90.642,78.456-132.65,89.836,0,0-3.9129,5.5948-37.144-0.13064-46.544-8.019-105.85-43.247-134.83-88.424-26.803-41.774-27.366-91.865-16.122-140.21,7.2975-31.373,25.441-60.91,48.364-83.538,16.339-16.128,58.623-36.151,58.623-36.151" stroke="#000" stroke-linecap="butt" stroke-width="6" fill="none"/>
<path fill="none" d="m333.89,598.28c-146.02,0-264.39-118.37-264.39-264.39s118.37-264.39,264.39-264.39,264.39,118.37,264.39,264.39-118.37,264.39-264.39,264.39z"/>
<path stroke-linejoin="miter" d="m357.17,157.43c5.4267-1.7494,4.5837-7.147,0.58097-15.342-4.0028-8.1947-11.827-14.247-15.145-13.797-3.3182,0.44968-3.7674,4.8255,1.3724,10.177,7.5244,7.8345,7.8717,10.286,13.192,18.962z" stroke="#000" stroke-linecap="butt" stroke-width="2" fill="#999"/>
<path stroke-linejoin="miter" d="m406.59,513.28a6.7175,6.7175,0,1,1,-13.435,0,6.7175,6.7175,0,1,1,13.435,0z" transform="matrix(0.77745238,0,0,0.77745238,96.111194,71.752779)" stroke="#000" stroke-linecap="round" stroke-miterlimit="4" stroke-dasharray="none" stroke-width="1.92937863" fill="#CCC"/>
<path stroke-linejoin="miter" d="m406.59,513.28a6.7175,6.7175,0,1,1,-13.435,0,6.7175,6.7175,0,1,1,13.435,0z" transform="matrix(0.77745238,0,0,0.77745238,87.929206,111.04745)" stroke="#000" stroke-linecap="round" stroke-miterlimit="4" stroke-dasharray="none" stroke-width="1.92937863" fill="#CCC"/>
<path stroke-linejoin="miter" d="m406.59,513.28a6.7175,6.7175,0,1,1,-13.435,0,6.7175,6.7175,0,1,1,13.435,0z" transform="matrix(0.77745238,0,0,0.77745238,128.9414,38.922562)" stroke="#000" stroke-linecap="round" stroke-miterlimit="4" stroke-dasharray="none" stroke-width="1.92937863" fill="#CCC"/>
<path stroke-linejoin="miter" d="m406.59,513.28a6.7175,6.7175,0,1,1,-13.435,0,6.7175,6.7175,0,1,1,13.435,0z" transform="matrix(0.77745238,0,0,0.77745238,167.83228,43.872311)" stroke="#000" stroke-linecap="round" stroke-miterlimit="4" stroke-dasharray="none" stroke-width="1.92937863" fill="#CCC"/>
<path stroke-linejoin="miter" d="m406.59,513.28a6.7175,6.7175,0,1,1,-13.435,0,6.7175,6.7175,0,1,1,13.435,0z" transform="matrix(0.77745238,0,0,0.77745238,159.34699,5.6885453)" stroke="#000" stroke-linecap="round" stroke-miterlimit="4" stroke-dasharray="none" stroke-width="1.92937863" fill="#CCC"/>
<path stroke-linejoin="miter" d="m406.59,513.28a6.7175,6.7175,0,1,1,-13.435,0,6.7175,6.7175,0,1,1,13.435,0z" transform="matrix(0.77745238,0,0,0.77745238,195.40945,-2.08963)" stroke="#000" stroke-linecap="round" stroke-miterlimit="4" stroke-dasharray="none" stroke-width="1.92937863" fill="#CCC"/>
<path stroke-linejoin="miter" d="m406.59,513.28a6.7175,6.7175,0,1,1,-13.435,0,6.7175,6.7175,0,1,1,13.435,0z" transform="matrix(0.77745238,0,0,0.77745238,168.53938,-53.001318)" stroke="#000" stroke-linecap="round" stroke-miterlimit="4" stroke-dasharray="none" stroke-width="1.92937863" fill="#CCC"/>
<path stroke-linejoin="miter" d="m406.59,513.28a6.7175,6.7175,0,1,1,-13.435,0,6.7175,6.7175,0,1,1,13.435,0z" transform="matrix(0.77745238,0,0,0.77745238,206.01605,-89.770871)" stroke="#000" stroke-linecap="round" stroke-miterlimit="4" stroke-dasharray="none" stroke-width="1.92937863" fill="#CCC"/>
<path stroke-linejoin="miter" d="m406.59,513.28a6.7175,6.7175,0,1,1,-13.435,0,6.7175,6.7175,0,1,1,13.435,0z" transform="matrix(0.77745238,0,0,0.77745238,171.36781,-104.62012)" stroke="#000" stroke-linecap="round" stroke-miterlimit="4" stroke-dasharray="none" stroke-width="1.92937863" fill="#CCC"/>
<path stroke-linejoin="miter" d="m406.59,513.28a6.7175,6.7175,0,1,1,-13.435,0,6.7175,6.7175,0,1,1,13.435,0z" transform="matrix(0.77745238,0,0,0.77745238,148.03328,-151.99627)" stroke="#000" stroke-linecap="round" stroke-miterlimit="4" stroke-dasharray="none" stroke-width="1.92937863" fill="#CCC"/>
<path stroke-linejoin="miter" d="m406.59,513.28a6.7175,6.7175,0,1,1,-13.435,0,6.7175,6.7175,0,1,1,13.435,0z" transform="matrix(0.77745238,0,0,0.77745238,196.82365,-146.33941)" stroke="#000" stroke-linecap="round" stroke-miterlimit="4" stroke-dasharray="none" stroke-width="1.92937863" fill="#CCC"/>
<path stroke-linejoin="miter" d="m406.59,513.28a6.7175,6.7175,0,1,1,-13.435,0,6.7175,6.7175,0,1,1,13.435,0z" transform="matrix(0.77745238,0,0,0.77745238,169.9536,-180.98765)" stroke="#000" stroke-linecap="round" stroke-miterlimit="4" stroke-dasharray="none" stroke-width="1.92937863" fill="#CCC"/>
<path stroke-linejoin="miter" d="m406.59,513.28a6.7175,6.7175,0,1,1,-13.435,0,6.7175,6.7175,0,1,1,13.435,0z" transform="matrix(0.77745238,0,0,0.77745238,119.04191,-192.30136)" stroke="#000" stroke-linecap="round" stroke-miterlimit="4" stroke-dasharray="none" stroke-width="1.92937863" fill="#CCC"/>
<path stroke-linejoin="miter" d="m406.59,513.28a6.7175,6.7175,0,1,1,-13.435,0,6.7175,6.7175,0,1,1,13.435,0z" transform="matrix(0.77745238,0,0,0.77745238,140.96222,-215.63588)" stroke="#000" stroke-linecap="round" stroke-miterlimit="4" stroke-dasharray="none" stroke-width="1.92937863" fill="#CCC"/>
<path stroke-linejoin="miter" d="m406.59,513.28a6.7175,6.7175,0,1,1,-13.435,0,6.7175,6.7175,0,1,1,13.435,0z" transform="matrix(0.77745238,0,0,0.77745238,86.51499,-209.97903)" stroke="#000" stroke-linecap="round" stroke-miterlimit="4" stroke-dasharray="none" stroke-width="1.92937863" fill="#CCC"/>
<path stroke-linejoin="miter" d="m406.59,513.28a6.7175,6.7175,0,1,1,-13.435,0,6.7175,6.7175,0,1,1,13.435,0z" transform="matrix(0.77745238,0,0,0.77745238,102.07135,-234.72776)" stroke="#000" stroke-linecap="round" stroke-miterlimit="4" stroke-dasharray="none" stroke-width="1.92937863" fill="#CCC"/>
<path stroke-linejoin="miter" d="m406.59,513.28a6.7175,6.7175,0,1,1,-13.435,0,6.7175,6.7175,0,1,1,13.435,0z" transform="matrix(0.77745238,0,0,0.77745238,59.644935,-258.06229)" stroke="#000" stroke-linecap="round" stroke-miterlimit="4" stroke-dasharray="none" stroke-width="1.92937863" fill="#CCC"/>
<path stroke-linejoin="miter" d="m406.59,513.28a6.7175,6.7175,0,1,1,-13.435,0,6.7175,6.7175,0,1,1,13.435,0z" transform="matrix(0.77745238,0,0,0.77745238,29.946449,-230.48513)" stroke="#000" stroke-linecap="round" stroke-miterlimit="4" stroke-dasharray="none" stroke-width="1.92937863" fill="#CCC"/>
<path stroke-linejoin="miter" d="m304.46,145.99c2.5163,0.76836,4.5332-3.5328,6.5396-1.8799,2.0065,1.653,0,5.9622,1.7095,8.4863,1.7061,2.524,5.7918,0.51352,6.6005,3.0294,0.8086,2.5158-3.1825,3.0482-3.875,5.0553-0.6926,2.0071,1.2279,6.3538-0.6812,7.7867-1.9092,1.4329-4.113-4.6058-7.0446-3.5586s-2.1845,8.7117-6.1624,8.7783c-3.9778,0.0666-4.113-10.204-7.9085-10.5-3.7954-0.29625-3.6881,7.0858-6.9653,6.7465-3.2772-0.33926-2.9413-7.4582-5.6454-8.3402-2.7042-0.88204-3.7304,2.9371-6.5822,2.3665-2.8517-0.5706-7.3822-2.0443-7.7199-7.0505s6.5382-11.973,11.37-12.246c4.8316-0.2729,3.8662,3.3727,8.0179,3.6438,4.1518,0.2712,8.5105-9.6904,12.574-9.1982,4.0637,0.49228,3.2569,6.1118,5.7731,6.8802z" stroke="#000" stroke-linecap="butt" stroke-width="2" fill="#666"/>
<path stroke-linejoin="miter" d="m294.8,154.37c-8.3224-1.7947-19.823,1.1778-31.781,4.8362" stroke="#000" stroke-linecap="butt" stroke-width="2.90170741" fill="none"/>
</svg>
